<svg xmlns="http://www.w3.org/2000/svg" viewBox="0 0 300 224" preserveAspectRatio="xMidYMid slice">
  <defs>
    <linearGradient id="sud-sea" x1="0" y1="0" x2="0" y2="1">
      <stop offset="0" stop-color="#63b0c2"/><stop offset="1" stop-color="#2c6d84"/>
    </linearGradient>
  </defs>
  <rect width="300" height="224" fill="url(#sud-sea)"/>
  <path d="M0 96 C100 82 200 108 300 92 L300 0 L0 0 Z" fill="#f2d9a0"/>
  <path d="M0 108 C100 94 200 120 300 104 L300 96 C200 112 100 86 0 100 Z" fill="#f6efdd"/>
  <g fill="#1f5a44">
    <path d="M36 108 C30 74 36 58 40 46 C46 60 50 80 46 108 Z"/>
    <path d="M40 46 C26 34 14 32 4 36 M40 46 C54 30 68 28 80 34 M40 46 C38 28 42 18 48 10" stroke="#1f5a44" stroke-width="6" fill="none"/>
    <path d="M250 104 C246 76 250 62 254 52 C259 64 262 82 258 104 Z"/>
    <path d="M254 52 C242 42 232 40 224 44 M254 52 C266 38 278 36 288 42" stroke="#1f5a44" stroke-width="5" fill="none"/>
  </g>
  <g transform="translate(150 160)">
    <path d="M0 10 C30 18 80 18 110 8 L100 24 C66 32 30 30 6 24 Z" fill="#5c3a1e"/>
    <path d="M52 8 L52 -22" stroke="#3a2412" stroke-width="3"/>
    <path d="M52 -22 C64 -12 68 0 66 8 L52 8 Z" fill="#7a421f"/>
  </g>
  <g stroke="#fdf3d0" stroke-width="2" fill="none" opacity=".6">
    <path d="M60 150 q16 5 32 0 M190 180 q16 5 32 0"/>
  </g>
</svg>
