<svg xmlns="http://www.w3.org/2000/svg" viewBox="0 0 280 380" preserveAspectRatio="xMidYMid slice">
  <defs>
    <linearGradient id="er-sky" x1="0" y1="0" x2="0" y2="1">
      <stop offset="0" stop-color="#b8d4de"/><stop offset="1" stop-color="#e8e2d2"/>
    </linearGradient>
  </defs>
  <rect width="280" height="380" fill="url(#er-sky)"/>
  <g transform="translate(140 60)">
    <path d="M0 -30 L8 -9 L30 -9 L12 4 L19 26 L0 13 L-19 26 L-12 4 L-30 -9 L-8 -9 Z" fill="#b31226"/>
  </g>
  <g fill="#f4efe3">
    <rect x="118" y="86" width="44" height="180" rx="6"/>
    <rect x="96" y="120" width="88" height="14" rx="4"/>
    <rect x="104" y="150" width="72" height="12" rx="4"/>
    <rect x="104" y="178" width="72" height="12" rx="4"/>
  </g>
  <g fill="#b31226">
    <rect x="104" y="266" width="72" height="10" rx="3"/>
    <circle cx="140" cy="286" r="7"/>
  </g>
  <rect x="92" y="296" width="96" height="26" rx="5" fill="#d9d2bd"/>
  <path d="M60 322 L92 322 L86 356 L54 356 Z" fill="#a9a494"/>
  <path d="M220 322 L188 322 L194 356 L226 356 Z" fill="#a9a494"/>
  <rect y="356" width="280" height="24" fill="#6d7b6f"/>
  <g fill="#2c6d84" opacity=".35">
    <path d="M0 60 C60 48 100 66 140 54 C190 40 230 60 280 50 L280 0 L0 0 Z"/>
  </g>
</svg>
